<svg xmlns="http://www.w3.org/2000/svg" viewBox="0 0 64 64" role="img" aria-label="Intent and Agent Management Console">
  <rect width="64" height="64" rx="14" fill="#1d4ed8"/>
  <path d="M22 18c-4 0-6 2-6 6v5c0 2-1 3-3 3 2 0 3 1 3 3v5c0 4 2 6 6 6" fill="none" stroke="#ffffff" stroke-width="4" stroke-linecap="round" stroke-linejoin="round"/>
  <path d="M42 18c4 0 6 2 6 6v5c0 2 1 3 3 3-2 0-3 1-3 3v5c0 4-2 6-6 6" fill="none" stroke="#ffffff" stroke-width="4" stroke-linecap="round" stroke-linejoin="round"/>
  <circle cx="32" cy="32" r="4" fill="#ffffff"/>
</svg>
